<svg width="92" height="88" viewBox="0 0 92 88" fill="none" xmlns="http://www.w3.org/2000/svg">
<path d="M54.9218 1.76042C38.024 6.76006 43.2599 14.9092 28.0281 12.9649H22.8067C19.3161 13.9834 11.7636 17.6868 9.47886 24.353C6.62289 32.6857 7.57488 36.0188 6.62289 44.9071C5.6709 53.7954 5.67089 55.7397 1.86294 59.0728C-1.94501 62.4059 -0.157831 76.058 9.47887 79.5327C18.9842 82.96 27.3286 73.5162 31.1366 82.96C34.9445 92.4037 49.2243 86.2931 64.6941 82.96C80.1639 79.6269 81.8299 75.9218 82.3059 63.7005C82.7819 51.4791 82.7674 47.5905 88.4793 41.4798C94.1913 35.3691 91.3498 29.3526 90.8738 16.0203C90.3978 2.68788 71.8195 -3.23923 54.9218 1.76042Z" fill="#355E3B" fill-opacity="0.7"/>
<path d="M61.3184 46.832L59.1504 52.8965H56.1035V62.4473L50.0391 64.6738V52.8965H29.9414C31.6406 50.9824 33.1836 49.0195 34.5703 47.0078C35.9766 44.9766 37.2363 42.8867 38.3496 40.7383C39.4824 38.5898 40.4785 36.3633 41.3379 34.0586C42.1973 31.7539 42.9395 29.3516 43.5645 26.8516L47.5781 28.9609C47.2266 30.3672 46.709 31.8906 46.0254 33.5312C45.3418 35.1719 44.5508 36.8027 43.6523 38.4238C42.7734 40.0449 41.8262 41.5879 40.8105 43.0527C39.7949 44.5176 38.7891 45.7773 37.793 46.832H50.0391V23.9219L56.1035 21.7539V46.832H61.3184Z" fill="black"/>
</svg>
