<svg width="92" height="88" viewBox="0 0 92 88" fill="none" xmlns="http://www.w3.org/2000/svg">
<path d="M54.9218 1.76042C38.024 6.76006 43.2599 14.9092 28.0281 12.9649H22.8067C19.3161 13.9834 11.7636 17.6868 9.47886 24.353C6.62289 32.6857 7.57488 36.0188 6.62289 44.9071C5.6709 53.7954 5.67089 55.7397 1.86294 59.0728C-1.94501 62.4059 -0.157831 76.058 9.47887 79.5327C18.9842 82.96 27.3286 73.5162 31.1366 82.96C34.9445 92.4037 49.2243 86.2931 64.6941 82.96C80.1639 79.6269 81.8299 75.9218 82.3059 63.7005C82.7819 51.4791 82.7674 47.5905 88.4793 41.4798C94.1913 35.3691 91.3498 29.3526 90.8738 16.0203C90.3978 2.68788 71.8195 -3.23923 54.9218 1.76042Z" fill="#355E3B" fill-opacity="0.7"/>
<path d="M50.2129 63.0332L44.1484 65.2012V27.877L38.6113 30.8945L37.5859 29.1367L50.2129 21.8125V63.0332Z" fill="black"/>
</svg>
