<svg width="92" height="88" viewBox="0 0 92 88" fill="none" xmlns="http://www.w3.org/2000/svg">
<path d="M54.9218 1.76042C38.024 6.76006 43.2599 14.9092 28.0281 12.9649H22.8067C19.3161 13.9834 11.7636 17.6868 9.47886 24.353C6.62289 32.6857 7.57488 36.0188 6.62289 44.9071C5.6709 53.7954 5.67089 55.7397 1.86294 59.0728C-1.94501 62.4059 -0.157831 76.058 9.47887 79.5327C18.9842 82.96 27.3286 73.5162 31.1366 82.96C34.9445 92.4037 49.2243 86.2931 64.6941 82.96C80.1639 79.6269 81.8299 75.9218 82.3059 63.7005C82.7819 51.4791 82.7674 47.5905 88.4793 41.4798C94.1913 35.3691 91.3498 29.3526 90.8738 16.0203C90.3978 2.68788 71.8195 -3.23923 54.9218 1.76042Z" fill="#355E3B" fill-opacity="0.7"/>
<path d="M61.8574 51.5195C61.8574 52.8867 61.6426 54.166 61.2129 55.3574C60.7832 56.5488 60.1973 57.6621 59.4551 58.6973C58.7324 59.7129 57.873 60.6504 56.877 61.5098C55.9004 62.3691 54.8457 63.1406 53.7129 63.8242C52.5996 64.4883 51.4375 65.0742 50.2266 65.582C49.0156 66.1094 47.834 66.5391 46.6816 66.8711C45.2363 67.3008 43.7617 67.623 42.2578 67.8379C40.7734 68.0723 39.2695 68.1895 37.7461 68.1895C37.4727 68.1895 37.1895 68.1895 36.8965 68.1895C36.6035 68.1895 36.3008 68.1699 35.9883 68.1309L35.6953 66.8125C36.9453 66.6562 38.2832 66.373 39.709 65.9629C41.1543 65.5723 42.5801 65.0645 43.9863 64.4395C45.3926 63.8145 46.7402 63.082 48.0293 62.2422C49.3184 61.4023 50.4609 60.4453 51.457 59.3711C52.4531 58.2969 53.2441 57.125 53.8301 55.8555C54.416 54.5664 54.709 53.1797 54.709 51.6953C54.709 50.3867 54.4648 49.2051 53.9766 48.1504C53.4883 47.0762 52.8242 46.168 51.9844 45.4258C51.1445 44.6836 50.1582 44.1172 49.0254 43.7266C47.8926 43.3164 46.6719 43.1113 45.3633 43.1113C44.0352 43.1113 42.7168 43.2773 41.4082 43.6094C40.1191 43.9219 38.8594 44.3027 37.6289 44.752L37.1309 43.4336C37.9512 43.043 38.8398 42.5938 39.7969 42.0859C40.7734 41.5586 41.7305 40.9727 42.668 40.3281C43.625 39.6836 44.543 38.9805 45.4219 38.2188C46.3008 37.457 47.082 36.6465 47.7656 35.7871C48.4492 34.9082 48.9863 33.9805 49.377 33.0039C49.7871 32.0273 49.9922 31.002 49.9922 29.9277C49.9922 28.502 49.6211 27.457 48.8789 26.793C48.1367 26.1094 47.0625 25.7676 45.6562 25.7676C44.8164 25.7676 43.9277 25.8945 42.9902 26.1484C42.0527 26.4023 41.1348 26.7441 40.2363 27.1738C39.3379 27.584 38.4883 28.0723 37.6875 28.6387C36.8867 29.2051 36.2031 29.791 35.6367 30.3965L34.6699 29.4883C35.4902 28.4922 36.457 27.4961 37.5703 26.5C38.6836 25.5039 39.875 24.6152 41.1445 23.834C42.4336 23.0332 43.7715 22.3887 45.1582 21.9004C46.5449 21.4121 47.9316 21.168 49.3184 21.168C50.3145 21.168 51.3008 21.3145 52.2773 21.6074C53.2539 21.9004 54.123 22.3301 54.8848 22.8965C55.666 23.4629 56.291 24.166 56.7598 25.0059C57.248 25.8457 57.4922 26.8223 57.4922 27.9355C57.4922 28.9902 57.2676 30.0059 56.8184 30.9824C56.3887 31.9395 55.8125 32.8574 55.0898 33.7363C54.3672 34.5957 53.5371 35.416 52.5996 36.1973C51.6621 36.959 50.6953 37.6621 49.6992 38.3066C48.7227 38.9316 47.7461 39.498 46.7695 40.0059C45.793 40.5137 44.9043 40.9531 44.1035 41.3242C45.0605 41.0703 46.0176 40.875 46.9746 40.7383C47.9316 40.6016 48.8887 40.5332 49.8457 40.5332C51.4863 40.5332 53.0293 40.7969 54.4746 41.3242C55.9395 41.832 57.2188 42.5645 58.3125 43.5215C59.4062 44.4785 60.2656 45.6406 60.8906 47.0078C61.5352 48.3555 61.8574 49.8594 61.8574 51.5195Z" fill="black"/>
</svg>
