<svg width="92" height="88" viewBox="0 0 92 88" fill="none" xmlns="http://www.w3.org/2000/svg">
<path d="M54.9218 1.76042C38.024 6.76006 43.2599 14.9092 28.0281 12.9649H22.8067C19.3161 13.9834 11.7636 17.6868 9.47886 24.353C6.62289 32.6857 7.57488 36.0188 6.62289 44.9071C5.6709 53.7954 5.67089 55.7397 1.86294 59.0728C-1.94501 62.4059 -0.157831 76.058 9.47887 79.5327C18.9842 82.96 27.3286 73.5162 31.1366 82.96C34.9445 92.4037 49.2243 86.2931 64.6941 82.96C80.1639 79.6269 81.8299 75.9218 82.3059 63.7005C82.7819 51.4791 82.7674 47.5905 88.4793 41.4798C94.1913 35.3691 91.3498 29.3526 90.8738 16.0203C90.3978 2.68788 71.8195 -3.23923 54.9218 1.76042Z" fill="#355E3B" fill-opacity="0.7"/>
<path d="M61.7656 34.1758C61.7656 36.2656 61.3457 38.2383 60.5059 40.0938C59.6855 41.9492 58.6211 43.6875 57.3125 45.3086C56.0234 46.9102 54.5781 48.3945 52.9766 49.7617C51.375 51.1289 49.8027 52.3594 48.2598 53.4531C47.2637 54.1367 46.2773 54.8203 45.3008 55.5039C44.3242 56.168 43.3477 56.8418 42.3711 57.5254C42.8008 57.4277 43.2207 57.3691 43.6309 57.3496C44.0605 57.3105 44.4805 57.291 44.8906 57.291C45.75 57.291 46.5996 57.3594 47.4395 57.4961C48.2793 57.6133 49.1094 57.7598 49.9297 57.9355C50.75 58.0918 51.5605 58.2383 52.3613 58.375C53.1621 58.4922 53.9531 58.5508 54.7344 58.5508C55.3008 58.5508 55.8672 58.4336 56.4336 58.1992C57 57.9648 57.5371 57.6621 58.0449 57.291C58.5723 56.9199 59.0508 56.5195 59.4805 56.0898C59.9297 55.6602 60.3105 55.2402 60.623 54.8301L61.707 55.5332L56.7266 64.5859C55.3789 64.4102 54.0117 64.2148 52.625 64C51.2383 63.8047 49.8516 63.6191 48.4648 63.4434C47.0781 63.248 45.6914 63.0918 44.3047 62.9746C42.918 62.8379 41.541 62.7598 40.1738 62.7402C39.7051 62.7207 39.207 62.7402 38.6797 62.7988C38.1719 62.8379 37.6641 62.9355 37.1562 63.0918C36.668 63.2285 36.1992 63.4238 35.75 63.6777C35.3203 63.9121 34.9492 64.2148 34.6367 64.5859L33.2012 63.5898C35.0762 61.7148 36.9902 59.9375 38.9434 58.2578C40.916 56.5586 42.8789 54.8301 44.832 53.0723C45.9453 52.0762 47.0977 50.9238 48.2891 49.6152C49.4805 48.3066 50.5645 46.9102 51.541 45.4258C52.5176 43.9219 53.3184 42.3691 53.9434 40.7676C54.5879 39.166 54.9102 37.5742 54.9102 35.9922C54.9102 34.6445 54.6758 33.3945 54.207 32.2422C53.7578 31.0703 53.1133 30.0645 52.2734 29.2246C51.4531 28.3652 50.4766 27.7012 49.3438 27.2324C48.2109 26.7441 46.9707 26.5 45.623 26.5C44.627 26.5 43.6406 26.627 42.6641 26.8809C41.6875 27.1348 40.75 27.4863 39.8516 27.9355C38.9531 28.3848 38.1035 28.9316 37.3027 29.5762C36.5215 30.2012 35.8184 30.8945 35.1934 31.6562L34.168 30.748C34.9102 29.6152 35.8086 28.502 36.8633 27.4082C37.9375 26.3145 39.1094 25.3379 40.3789 24.4785C41.6484 23.5996 42.9863 22.8965 44.3926 22.3691C45.7988 21.8418 47.2246 21.5781 48.6699 21.5781C50.6035 21.5781 52.3711 21.8711 53.9727 22.457C55.5938 23.0234 56.9805 23.8535 58.1328 24.9473C59.2852 26.0215 60.1738 27.3398 60.7988 28.9023C61.4434 30.4648 61.7656 32.2227 61.7656 34.1758Z" fill="black"/>
</svg>
